<mxfile host="app.diagrams.net" agent="Mozilla/5.0 (Windows NT 10.0; Win64; x64) AppleWebKit/537.36 (KHTML, like Gecko) Chrome/132.0.0.0 Safari/537.36 Edg/132.0.0.0" version="26.0.6">
  <diagram name="Page-1" id="2RkFune1oe_StZLzElEK">
    <mxGraphModel dx="1005" dy="1639" grid="1" gridSize="10" guides="1" tooltips="1" connect="1" arrows="1" fold="1" page="1" pageScale="1" pageWidth="850" pageHeight="1100" math="0" shadow="0">
      <root>
        <mxCell id="0" />
        <mxCell id="1" parent="0" />
        <mxCell id="IVRuhEm7x0cw01zjMbJr-1" value="Multipleks" style="swimlane;fontStyle=1;align=center;verticalAlign=top;childLayout=stackLayout;horizontal=1;startSize=26;horizontalStack=0;resizeParent=1;resizeParentMax=0;resizeLast=0;collapsible=1;marginBottom=0;" parent="1" vertex="1">
          <mxGeometry x="310" y="-1020" width="246" height="120" as="geometry" />
        </mxCell>
        <mxCell id="IVRuhEm7x0cw01zjMbJr-2" value="+ name: String&#xa;+ address: String" style="text;strokeColor=none;fillColor=none;align=left;verticalAlign=top;spacingLeft=4;spacingRight=4;overflow=hidden;rotatable=0;points=[[0,0.5],[1,0.5]];portConstraint=eastwest;" parent="IVRuhEm7x0cw01zjMbJr-1" vertex="1">
          <mxGeometry y="26" width="246" height="44" as="geometry" />
        </mxCell>
        <mxCell id="IVRuhEm7x0cw01zjMbJr-3" value="" style="line;strokeWidth=1;fillColor=none;align=left;verticalAlign=middle;spacingTop=-1;spacingLeft=3;spacingRight=3;rotatable=0;labelPosition=right;points=[];portConstraint=eastwest;" parent="IVRuhEm7x0cw01zjMbJr-1" vertex="1">
          <mxGeometry y="70" width="246" height="10" as="geometry" />
        </mxCell>
        <mxCell id="IVRuhEm7x0cw01zjMbJr-4" value="+ addCinema(Cinema): void&#xa;+ addAccount(Account): void&#xa;" style="text;strokeColor=none;fillColor=none;align=left;verticalAlign=top;spacingLeft=4;spacingRight=4;overflow=hidden;rotatable=0;points=[[0,0.5],[1,0.5]];portConstraint=eastwest;" parent="IVRuhEm7x0cw01zjMbJr-1" vertex="1">
          <mxGeometry y="80" width="246" height="40" as="geometry" />
        </mxCell>
        <mxCell id="IVRuhEm7x0cw01zjMbJr-5" value="" style="endArrow=diamondThin;endFill=0;endSize=24;html=1;rounded=0;edgeStyle=orthogonalEdgeStyle;exitX=0.5;exitY=0;exitDx=0;exitDy=0;entryX=0.404;entryY=1.05;entryDx=0;entryDy=0;entryPerimeter=0;" parent="1" source="IVRuhEm7x0cw01zjMbJr-6" edge="1" target="IVRuhEm7x0cw01zjMbJr-4">
          <mxGeometry width="160" relative="1" as="geometry">
            <mxPoint x="135" y="-745" as="sourcePoint" />
            <mxPoint x="410" y="-830" as="targetPoint" />
            <Array as="points">
              <mxPoint x="135" y="-740" />
              <mxPoint x="135" y="-776" />
              <mxPoint x="409" y="-776" />
            </Array>
          </mxGeometry>
        </mxCell>
        <mxCell id="IVRuhEm7x0cw01zjMbJr-6" value="Cinema" style="swimlane;fontStyle=1;align=center;verticalAlign=top;childLayout=stackLayout;horizontal=1;startSize=26;horizontalStack=0;resizeParent=1;resizeParentMax=0;resizeLast=0;collapsible=1;marginBottom=0;" parent="1" vertex="1">
          <mxGeometry x="20" y="-740" width="240" height="140" as="geometry" />
        </mxCell>
        <mxCell id="IVRuhEm7x0cw01zjMbJr-7" value="+ name: String&#xa;+ address: String" style="text;strokeColor=none;fillColor=none;align=left;verticalAlign=top;spacingLeft=4;spacingRight=4;overflow=hidden;rotatable=0;points=[[0,0.5],[1,0.5]];portConstraint=eastwest;" parent="IVRuhEm7x0cw01zjMbJr-6" vertex="1">
          <mxGeometry y="26" width="240" height="34" as="geometry" />
        </mxCell>
        <mxCell id="IVRuhEm7x0cw01zjMbJr-8" value="" style="line;strokeWidth=1;fillColor=none;align=left;verticalAlign=middle;spacingTop=-1;spacingLeft=3;spacingRight=3;rotatable=0;labelPosition=right;points=[];portConstraint=eastwest;" parent="IVRuhEm7x0cw01zjMbJr-6" vertex="1">
          <mxGeometry y="60" width="240" height="8" as="geometry" />
        </mxCell>
        <mxCell id="IVRuhEm7x0cw01zjMbJr-9" value="+ addRoom(Room): void&#xa;+ addScreening(Screening): void&#xa;+ getScreenings(): Collection&lt;Screening&gt;&#xa;+ printProgramme(): void" style="text;strokeColor=none;fillColor=none;align=left;verticalAlign=top;spacingLeft=4;spacingRight=4;overflow=hidden;rotatable=0;points=[[0,0.5],[1,0.5]];portConstraint=eastwest;" parent="IVRuhEm7x0cw01zjMbJr-6" vertex="1">
          <mxGeometry y="68" width="240" height="72" as="geometry" />
        </mxCell>
        <mxCell id="IVRuhEm7x0cw01zjMbJr-11" value="Room" style="swimlane;fontStyle=1;align=center;verticalAlign=top;childLayout=stackLayout;horizontal=1;startSize=26;horizontalStack=0;resizeParent=1;resizeParentMax=0;resizeLast=0;collapsible=1;marginBottom=0;" parent="1" vertex="1">
          <mxGeometry x="60" y="-530" width="160" height="130" as="geometry" />
        </mxCell>
        <mxCell id="IVRuhEm7x0cw01zjMbJr-16" value="Account" style="swimlane;fontStyle=1;align=center;verticalAlign=top;childLayout=stackLayout;horizontal=1;startSize=26;horizontalStack=0;resizeParent=1;resizeParentMax=0;resizeLast=0;collapsible=1;marginBottom=0;" parent="1" vertex="1">
          <mxGeometry x="580" y="-740" width="220" height="130" as="geometry" />
        </mxCell>
        <mxCell id="IVRuhEm7x0cw01zjMbJr-17" value="+ name: String&#xa;+ surname: String" style="text;strokeColor=none;fillColor=none;align=left;verticalAlign=top;spacingLeft=4;spacingRight=4;overflow=hidden;rotatable=0;points=[[0,0.5],[1,0.5]];portConstraint=eastwest;" parent="IVRuhEm7x0cw01zjMbJr-16" vertex="1">
          <mxGeometry y="26" width="220" height="54" as="geometry" />
        </mxCell>
        <mxCell id="IVRuhEm7x0cw01zjMbJr-18" value="" style="line;strokeWidth=1;fillColor=none;align=left;verticalAlign=middle;spacingTop=-1;spacingLeft=3;spacingRight=3;rotatable=0;labelPosition=right;points=[];portConstraint=eastwest;" parent="IVRuhEm7x0cw01zjMbJr-16" vertex="1">
          <mxGeometry y="80" width="220" height="8" as="geometry" />
        </mxCell>
        <mxCell id="IVRuhEm7x0cw01zjMbJr-19" value="+ addTicket(Ticket): void&#xa;+ getTickets(): Collection&lt;Ticket&gt;" style="text;strokeColor=none;fillColor=none;align=left;verticalAlign=top;spacingLeft=4;spacingRight=4;overflow=hidden;rotatable=0;points=[[0,0.5],[1,0.5]];portConstraint=eastwest;" parent="IVRuhEm7x0cw01zjMbJr-16" vertex="1">
          <mxGeometry y="88" width="220" height="42" as="geometry" />
        </mxCell>
        <mxCell id="IVRuhEm7x0cw01zjMbJr-20" value="Screening" style="swimlane;fontStyle=1;align=center;verticalAlign=top;childLayout=stackLayout;horizontal=1;startSize=26;horizontalStack=0;resizeParent=1;resizeParentMax=0;resizeLast=0;collapsible=1;marginBottom=0;" parent="1" vertex="1">
          <mxGeometry x="290" y="-530" width="230" height="140" as="geometry" />
        </mxCell>
        <mxCell id="IVRuhEm7x0cw01zjMbJr-21" value="+ movie: String&#xa;+ datetime: String&#xa;+ bookedTickets: int&#xa;+ room: Room" style="text;strokeColor=none;fillColor=none;align=left;verticalAlign=top;spacingLeft=4;spacingRight=4;overflow=hidden;rotatable=0;points=[[0,0.5],[1,0.5]];portConstraint=eastwest;" parent="IVRuhEm7x0cw01zjMbJr-20" vertex="1">
          <mxGeometry y="26" width="230" height="64" as="geometry" />
        </mxCell>
        <mxCell id="IVRuhEm7x0cw01zjMbJr-22" value="" style="line;strokeWidth=1;fillColor=none;align=left;verticalAlign=middle;spacingTop=-1;spacingLeft=3;spacingRight=3;rotatable=0;labelPosition=right;points=[];portConstraint=eastwest;" parent="IVRuhEm7x0cw01zjMbJr-20" vertex="1">
          <mxGeometry y="90" width="230" height="10" as="geometry" />
        </mxCell>
        <mxCell id="IVRuhEm7x0cw01zjMbJr-23" value="+ setBookedTickets(bookedTickets): void&#xa;+ reserveSeats(seatsQuantity): void" style="text;strokeColor=none;fillColor=none;align=left;verticalAlign=top;spacingLeft=4;spacingRight=4;overflow=hidden;rotatable=0;points=[[0,0.5],[1,0.5]];portConstraint=eastwest;" parent="IVRuhEm7x0cw01zjMbJr-20" vertex="1">
          <mxGeometry y="100" width="230" height="40" as="geometry" />
        </mxCell>
        <mxCell id="QSuAArHW07FepPDSxV0R-1" value="Ticket" style="swimlane;fontStyle=1;align=center;verticalAlign=top;childLayout=stackLayout;horizontal=1;startSize=26;horizontalStack=0;resizeParent=1;resizeParentMax=0;resizeLast=0;collapsible=1;marginBottom=0;" parent="1" vertex="1">
          <mxGeometry x="570" y="-530" width="220" height="80" as="geometry" />
        </mxCell>
        <mxCell id="QSuAArHW07FepPDSxV0R-2" value="+ numberOfSeats: int&#xa;+ movie: String&#xa;+ datetime: String&#xa;" style="text;strokeColor=none;fillColor=none;align=left;verticalAlign=top;spacingLeft=4;spacingRight=4;overflow=hidden;rotatable=0;points=[[0,0.5],[1,0.5]];portConstraint=eastwest;" parent="QSuAArHW07FepPDSxV0R-1" vertex="1">
          <mxGeometry y="26" width="220" height="54" as="geometry" />
        </mxCell>
        <mxCell id="QSuAArHW07FepPDSxV0R-5" value="" style="endArrow=diamondThin;endFill=0;endSize=24;html=1;rounded=0;edgeStyle=orthogonalEdgeStyle;exitX=0.5;exitY=0;exitDx=0;exitDy=0;" parent="1" edge="1" source="QSuAArHW07FepPDSxV0R-1">
          <mxGeometry width="160" relative="1" as="geometry">
            <mxPoint x="679.5" y="-540" as="sourcePoint" />
            <mxPoint x="679.5" y="-610" as="targetPoint" />
            <Array as="points">
              <mxPoint x="680" y="-580" />
            </Array>
          </mxGeometry>
        </mxCell>
        <mxCell id="QSuAArHW07FepPDSxV0R-7" value="" style="endArrow=open;html=1;endSize=12;startArrow=open;startSize=14;startFill=0;edgeStyle=orthogonalEdgeStyle;rounded=0;entryX=1.013;entryY=0.195;entryDx=0;entryDy=0;entryPerimeter=0;exitX=0.015;exitY=0.244;exitDx=0;exitDy=0;exitPerimeter=0;" parent="1" target="IVRuhEm7x0cw01zjMbJr-21" edge="1" source="QSuAArHW07FepPDSxV0R-2">
          <mxGeometry relative="1" as="geometry">
            <mxPoint x="560" y="-490" as="sourcePoint" />
            <mxPoint x="490" y="-500" as="targetPoint" />
            <Array as="points">
              <mxPoint x="540" y="-491" />
            </Array>
          </mxGeometry>
        </mxCell>
        <mxCell id="QSuAArHW07FepPDSxV0R-8" value="1&lt;div&gt;&lt;br&gt;&lt;/div&gt;" style="edgeLabel;resizable=0;html=1;align=left;verticalAlign=top;" parent="QSuAArHW07FepPDSxV0R-7" connectable="0" vertex="1">
          <mxGeometry x="-1" relative="1" as="geometry">
            <mxPoint x="-23" as="offset" />
          </mxGeometry>
        </mxCell>
        <mxCell id="QSuAArHW07FepPDSxV0R-9" value="1" style="edgeLabel;resizable=0;html=1;align=right;verticalAlign=top;" parent="QSuAArHW07FepPDSxV0R-7" connectable="0" vertex="1">
          <mxGeometry x="1" relative="1" as="geometry">
            <mxPoint x="20" as="offset" />
          </mxGeometry>
        </mxCell>
        <mxCell id="Uta6RNaC6rtw8qymzkWk-5" value="" style="endArrow=diamondThin;endFill=0;endSize=24;html=1;rounded=0;edgeStyle=orthogonalEdgeStyle;exitX=0.456;exitY=-0.009;exitDx=0;exitDy=0;exitPerimeter=0;entryX=0.553;entryY=0.99;entryDx=0;entryDy=0;entryPerimeter=0;" edge="1" parent="1">
          <mxGeometry width="160" relative="1" as="geometry">
            <mxPoint x="665.3199999999999" y="-740" as="sourcePoint" />
            <mxPoint x="411.038" y="-899.23" as="targetPoint" />
            <Array as="points">
              <mxPoint x="665" y="-778.83" />
              <mxPoint x="410" y="-778.83" />
            </Array>
          </mxGeometry>
        </mxCell>
        <mxCell id="Uta6RNaC6rtw8qymzkWk-6" value="" style="endArrow=diamondThin;endFill=0;endSize=24;html=1;rounded=0;edgeStyle=orthogonalEdgeStyle;" edge="1" parent="1">
          <mxGeometry width="160" relative="1" as="geometry">
            <mxPoint x="130" y="-530" as="sourcePoint" />
            <mxPoint x="130" y="-600" as="targetPoint" />
            <Array as="points">
              <mxPoint x="130" y="-570" />
              <mxPoint x="130" y="-570" />
            </Array>
          </mxGeometry>
        </mxCell>
        <mxCell id="Uta6RNaC6rtw8qymzkWk-7" value="" style="line;strokeWidth=1;fillColor=none;align=left;verticalAlign=middle;spacingTop=-1;spacingLeft=3;spacingRight=3;rotatable=0;labelPosition=right;points=[];portConstraint=eastwest;" vertex="1" parent="1">
          <mxGeometry x="60" y="-440" width="160" height="8" as="geometry" />
        </mxCell>
        <mxCell id="IVRuhEm7x0cw01zjMbJr-12" value="+ name: String&#xa;+ capacity: int&#xa;+ hasVIP: boolean&#xa;+ has3D: boolean" style="text;strokeColor=none;fillColor=none;align=left;verticalAlign=top;spacingLeft=4;spacingRight=4;overflow=hidden;rotatable=0;points=[[0,0.5],[1,0.5]];portConstraint=eastwest;" parent="1" vertex="1">
          <mxGeometry x="60" y="-504" width="160" height="104" as="geometry" />
        </mxCell>
        <mxCell id="Uta6RNaC6rtw8qymzkWk-10" value="+ getCapacity(): int" style="text;strokeColor=none;fillColor=none;align=left;verticalAlign=top;spacingLeft=4;spacingRight=4;overflow=hidden;rotatable=0;points=[[0,0.5],[1,0.5]];portConstraint=eastwest;" vertex="1" parent="1">
          <mxGeometry x="60" y="-432" width="160" height="22" as="geometry" />
        </mxCell>
        <mxCell id="Uta6RNaC6rtw8qymzkWk-15" value="" style="endArrow=open;html=1;endSize=12;startArrow=open;startSize=14;startFill=0;edgeStyle=orthogonalEdgeStyle;rounded=0;entryX=1.013;entryY=0.195;entryDx=0;entryDy=0;entryPerimeter=0;" edge="1" parent="1">
          <mxGeometry relative="1" as="geometry">
            <mxPoint x="290" y="-490" as="sourcePoint" />
            <mxPoint x="220" y="-490.5" as="targetPoint" />
            <Array as="points">
              <mxPoint x="278" y="-489.5" />
            </Array>
          </mxGeometry>
        </mxCell>
        <mxCell id="Uta6RNaC6rtw8qymzkWk-17" value="0..n" style="edgeLabel;resizable=0;html=1;align=right;verticalAlign=top;" connectable="0" vertex="1" parent="Uta6RNaC6rtw8qymzkWk-15">
          <mxGeometry x="1" relative="1" as="geometry">
            <mxPoint x="30" y="1" as="offset" />
          </mxGeometry>
        </mxCell>
        <mxCell id="Uta6RNaC6rtw8qymzkWk-18" value="0..n" style="edgeLabel;resizable=0;html=1;align=right;verticalAlign=top;" connectable="0" vertex="1" parent="1">
          <mxGeometry x="290.0021550522979" y="-489.99998142196296" as="geometry" />
        </mxCell>
      </root>
    </mxGraphModel>
  </diagram>
</mxfile>
